<?xml version="1.0" encoding="UTF-8" standalone="no"?>
<svg width="100px" height="100px" viewBox="0 0 100 100" version="1.1" xmlns="http://www.w3.org/2000/svg" xmlns:xlink="http://www.w3.org/1999/xlink">
    <!-- Generator: Sketch 45.2 (43514) - http://www.bohemiancoding.com/sketch -->
    <title>codepen-icon</title>
    <desc>Created with Sketch.</desc>
    <defs></defs>
    <g id="Page-1" stroke="none" stroke-width="1" fill="none" fill-rule="evenodd">
        <g id="codepen-icon" fill-rule="nonzero" fill="#404040">
            <path d="M69.9682313,43.6525906 C69.9644622,43.6272834 69.9580007,43.603053 69.9542316,43.5777458 C69.9456163,43.5292851 69.9370011,43.4808244 69.9240782,43.4334406 C69.9165399,43.4049026 69.9063093,43.3774415 69.8971556,43.3505189 C69.8836943,43.3085197 69.8696946,43.2665204 69.8530025,43.225598 C69.841695,43.1970601 69.8276953,43.1690605 69.8147724,43.1415995 C69.7970035,43.1028309 69.7781577,43.0646008 69.7566196,43.0279861 C69.7410045,43.000525 69.723774,42.9741408 69.7076204,42.9482951 C69.684467,42.9127573 69.6607751,42.8777579 69.6349294,42.8443738 C69.6160836,42.8190666 69.5961608,42.7937593 69.5762381,42.769529 C69.548777,42.7377603 69.5202391,42.7065301 69.4906242,42.6769152 C69.4680092,42.6537618 69.4459327,42.6306083 69.4222408,42.6096087 C69.3904721,42.5810707 69.358165,42.5536096 69.3247809,42.5277639 C69.2989352,42.5078412 69.273628,42.4879185 69.2467053,42.4690727 C69.2364748,42.4626112 69.2278595,42.4545344 69.2181674,42.448073 L50.9447144,30.288745 C50.3674936,29.9037517 49.6158143,29.9037517 49.0385936,30.288745 L30.7651406,42.4475346 C30.7554485,42.453996 30.7468332,42.4620728 30.7366026,42.4685342 C30.70968,42.48738 30.6843728,42.5073028 30.6590655,42.5223794 C30.6256815,42.5487636 30.5928359,42.5762246 30.5616057,42.6042242 C30.5373753,42.6252238 30.5152988,42.6483772 30.4926838,42.6715307 C30.4625305,42.7011456 30.4345309,42.7323758 30.4076083,42.7792211 C30.3871471,42.8034515 30.3672244,42.8287587 30.3483786,42.854066 C30.3230713,42.88745 30.298841,42.9224494 30.276226,42.9579873 C30.2589955,42.9843714 30.242842,43.0107556 30.2266884,43.0118325 C30.2056887,43.0484472 30.1868429,43.0866773 30.1685355,43.1254459 C30.1556127,43.152907 30.1416129,43.1814449 30.1303054,43.2094445 C30.1136134,43.2503668 30.0996137,43.2923661 30.0861524,43.3171349 C30.0769987,43.344596 30.0673065,43.372057 30.0592297,43.4000565 C30.0468453,43.4474403 30.0382301,43.495901 30.0290764,43.5443617 C30.0247688,43.569669 30.0183074,43.5938993 30.0156151,43.598207 C30.0053845,43.6719749 30,43.7462813 30,43.8222031 L30,56.0590682 C30,56.1129134 30,56.2206039 30,56.2841412 C30.0032307,56.2841412 30,56.3379865 30,56.3379865 C30.0091537,56.3918317 30,56.4456769 30.0538452,56.4822917 C30.061922,56.5361369 30.0538452,56.5361369 30.1076904,56.5652133 C30.1211517,56.6190585 30.1615357,56.6729037 30.1615357,56.6729037 C30.1728432,56.726749 30.1615357,56.726749 30.2153809,56.7558254 C30.2336883,56.8096706 30.2692261,56.8096706 30.2692261,56.8705157 C30.2848412,56.8705157 30.3230713,56.9243609 30.3230713,56.9243609 C30.3456863,56.9782061 30.3769166,56.9782061 30.3769166,57.0282822 C30.3957624,57.0282822 30.4307618,57.0821274 30.4307618,57.1031271 C30.4576844,57.1569723 30.484607,57.1569723 30.5384522,57.2108175 C30.5610672,57.2108175 30.5922974,57.2646627 30.5922974,57.278124 C30.6235277,57.3319693 30.6461427,57.3319693 30.6999879,57.3599688 C30.7252951,57.3599688 30.7538331,57.413814 30.7538331,57.413814 C30.7640637,57.413814 30.7538331,57.413814 30.8076783,57.4348136 L49.0385936,69.6711403 C49.327204,69.8865212 49.6847362,69.9403664 50.0078076,69.9602891 C50.3394941,69.9602891 50.6717191,69.8633677 50.960868,69.6711403 L69.2348594,57.4886589 C69.2445515,57.4821974 69.2531668,57.4741206 69.2633974,57.4676592 C69.29032,57.4488134 69.3156272,57.4288907 69.3414729,57.4089679 C69.374857,57.3825838 69.4071641,57.3551227 69.4389328,57.3271232 C69.4626247,57.3061235 69.4847012,57.2829701 69.5073162,57.2598167 C69.5374695,57.2302018 69.5654691,57.1989716 69.5929301,57.1672029 C69.6128529,57.1429725 69.6327756,57.1187422 69.6516214,57.092358 C69.6774671,57.058974 69.701159,57.0239746 69.7243125,56.9884367 C69.740466,56.9620526 69.7576965,56.9356684 69.7733116,56.9098227 C69.7948497,56.8721311 69.8136955,56.833901 69.8314645,56.7951324 C69.8443873,56.7676713 69.8583871,56.7402103 69.8696946,56.7122108 C69.8863866,56.6702115 69.9003863,56.6282122 69.9138476,56.5862129 C69.9230013,56.5587519 69.9332319,56.5312908 69.9407703,56.5032913 C69.9531547,56.4559075 69.9623083,56.4074468 69.9709236,56.3589861 C69.9752312,56.3347557 69.9816926,56.3094485 69.9849233,56.2852181 C69.9946155,56.2103733 70,56.1360669 70,56.0601451 L70,43.8765868 C69.9838464,43.8038957 69.9967693,43.7500505 69.9429241,43.6525906 L69.9682313,43.6525906 Z M51.709855,34.9048959 L65.171699,43.8787406 L59.158803,47.9015171 L51.709855,42.9186803 L51.709855,34.9048959 Z M48.273453,34.9194341 L48.273453,42.9332185 L40.8250434,47.9015171 L34.811609,43.8787406 L48.273453,34.9048959 L48.273453,34.9194341 Z M33.4364021,47.0927619 L37.7348661,49.9680967 L33.4364021,52.8434316 L33.4364021,47.0927619 Z M48.273453,65.0307591 L34.811609,56.0806063 L40.8250434,52.0589067 L48.273453,57.0406666 L48.273453,65.0307591 L48.273453,65.0307591 Z M49.9921924,54.0328725 L43.9152207,49.9680967 L49.9921924,45.9033209 L56.0686257,49.9680967 L49.9921924,54.0328725 Z M51.709855,65.0307591 L51.709855,57.0175132 L59.158803,52.0357532 L65.171699,56.0574529 L51.709855,65.0307591 Z M66.5474444,52.8434316 L62.2495188,49.9680967 L66.5474444,47.0927619 L66.5474444,52.8434316 Z" id="Shape"></path>
        </g>
    </g>
</svg>