<?xml version="1.0" encoding="UTF-8" standalone="no"?>
<svg width="40px" height="40px" viewBox="0 0 40 40" version="1.1" xmlns="http://www.w3.org/2000/svg" xmlns:xlink="http://www.w3.org/1999/xlink">
    <!-- Generator: Sketch 45.2 (43514) - http://www.bohemiancoding.com/sketch -->
    <title>Shape</title>
    <desc>Created with Sketch.</desc>
    <defs></defs>
    <g id="Page-1" stroke="none" stroke-width="1" fill="none" fill-rule="evenodd">
        <g id="Group" fill-rule="nonzero" fill="#000000">
            <path d="M39.9682313,13.6525906 C39.9644622,13.6272834 39.9580007,13.603053 39.9542316,13.5777458 C39.9456163,13.5292851 39.9370011,13.4808244 39.9240782,13.4334406 C39.9165399,13.4049026 39.9063093,13.3774415 39.8971556,13.3505189 C39.8836943,13.3085197 39.8696946,13.2665204 39.8530025,13.225598 C39.841695,13.1970601 39.8276953,13.1690605 39.8147724,13.1415995 C39.7970035,13.1028309 39.7781577,13.0646008 39.7566196,13.0279861 C39.7410045,13.000525 39.723774,12.9741408 39.7076204,12.9482951 C39.684467,12.9127573 39.6607751,12.8777579 39.6349294,12.8443738 C39.6160836,12.8190666 39.5961608,12.7937593 39.5762381,12.769529 C39.548777,12.7377603 39.5202391,12.7065301 39.4906242,12.6769152 C39.4680092,12.6537618 39.4459327,12.6306083 39.4222408,12.6096087 C39.3904721,12.5810707 39.358165,12.5536096 39.3247809,12.5277639 C39.2989352,12.5078412 39.273628,12.4879185 39.2467053,12.4690727 C39.2364748,12.4626112 39.2278595,12.4545344 39.2181674,12.448073 L20.9447144,0.288745002 C20.3674936,-0.0962483342 19.6158143,-0.0962483342 19.0385936,0.288745002 L0.765140603,12.4475346 C0.755448463,12.453996 0.746833228,12.4620728 0.736602636,12.4685342 C0.709680025,12.48738 0.68437277,12.5073028 0.659065516,12.5223794 C0.625681479,12.5487636 0.592835893,12.5762246 0.561605665,12.6042242 C0.537375315,12.6252238 0.515298774,12.6483772 0.49268378,12.6715307 C0.462530456,12.7011456 0.434530941,12.7323758 0.40760833,12.7792211 C0.387147146,12.8034515 0.367224413,12.8287587 0.348378586,12.854066 C0.323071331,12.88745 0.298840982,12.9224494 0.276225988,12.9579873 C0.258995517,12.9843714 0.242841951,13.0107556 0.226688384,13.0118325 C0.205688748,13.0484472 0.18684292,13.0866773 0.168535545,13.1254459 C0.155612691,13.152907 0.141612934,13.1814449 0.130305437,13.2094445 C0.113613418,13.2503668 0.0996136605,13.2923661 0.0861523551,13.3171349 C0.0769986673,13.344596 0.0673065274,13.372057 0.0592297441,13.4000565 C0.0468453431,13.4474403 0.0382301076,13.495901 0.0290764198,13.5443617 C0.0247688021,13.569669 0.0183073754,13.5938993 0.0156151144,13.598207 C0.00538452219,13.6719749 0,13.7462813 0,13.8222031 L0,26.0590682 C0,26.1129134 0,26.2206039 0,26.2841412 C0.00323071331,26.2841412 0,26.3379865 0,26.3379865 C0.00915368772,26.3918317 0,26.4456769 0.0538452219,26.4822917 C0.0619220052,26.5361369 0.0538452219,26.5361369 0.107690444,26.5652133 C0.121151749,26.6190585 0.161535666,26.6729037 0.161535666,26.6729037 C0.172843162,26.726749 0.161535666,26.726749 0.215380888,26.7558254 C0.233688263,26.8096706 0.26922611,26.8096706 0.26922611,26.8705157 C0.284841224,26.8705157 0.323071331,26.9243609 0.323071331,26.9243609 C0.345686325,26.9782061 0.376916553,26.9782061 0.376916553,27.0282822 C0.395762381,27.0282822 0.430761775,27.0821274 0.430761775,27.1031271 C0.457684386,27.1569723 0.484606997,27.1569723 0.538452219,27.2108175 C0.561067212,27.2108175 0.592297441,27.2646627 0.592297441,27.278124 C0.62352767,27.3319693 0.646142663,27.3319693 0.699987885,27.3599688 C0.725295139,27.3599688 0.753833107,27.413814 0.753833107,27.413814 C0.764063699,27.413814 0.753833107,27.413814 0.807678329,27.4348136 L19.0385936,39.6711403 C19.327204,39.8865212 19.6847362,39.9403664 20.0078076,39.9602891 C20.3394941,39.9602891 20.6717191,39.8633677 20.960868,39.6711403 L39.2348594,27.4886589 C39.2445515,27.4821974 39.2531668,27.4741206 39.2633974,27.4676592 C39.29032,27.4488134 39.3156272,27.4288907 39.3414729,27.4089679 C39.374857,27.3825838 39.4071641,27.3551227 39.4389328,27.3271232 C39.4626247,27.3061235 39.4847012,27.2829701 39.5073162,27.2598167 C39.5374695,27.2302018 39.5654691,27.1989716 39.5929301,27.1672029 C39.6128529,27.1429725 39.6327756,27.1187422 39.6516214,27.092358 C39.6774671,27.058974 39.701159,27.0239746 39.7243125,26.9884367 C39.740466,26.9620526 39.7576965,26.9356684 39.7733116,26.9098227 C39.7948497,26.8721311 39.8136955,26.833901 39.8314645,26.7951324 C39.8443873,26.7676713 39.8583871,26.7402103 39.8696946,26.7122108 C39.8863866,26.6702115 39.9003863,26.6282122 39.9138476,26.5862129 C39.9230013,26.5587519 39.9332319,26.5312908 39.9407703,26.5032913 C39.9531547,26.4559075 39.9623083,26.4074468 39.9709236,26.3589861 C39.9752312,26.3347557 39.9816926,26.3094485 39.9849233,26.2852181 C39.9946155,26.2103733 40,26.1360669 40,26.0601451 L40,13.8765868 C39.9838464,13.8038957 39.9967693,13.7500505 39.9429241,13.6525906 L39.9682313,13.6525906 Z M21.709855,4.90489588 L35.171699,13.8787406 L29.158803,17.9015171 L21.709855,12.9186803 L21.709855,4.90489588 Z M18.273453,4.91943409 L18.273453,12.9332185 L10.8250434,17.9015171 L4.81160903,13.8787406 L18.273453,4.90489588 L18.273453,4.91943409 Z M3.43640206,17.0927619 L7.73486613,19.9680967 L3.43640206,22.8434316 L3.43640206,17.0927619 Z M18.273453,35.0307591 L4.81160903,26.0806063 L10.8250434,22.0589067 L18.273453,27.0406666 L18.273453,35.0307591 L18.273453,35.0307591 Z M19.9921924,24.0328725 L13.9152207,19.9680967 L19.9921924,15.9033209 L26.0686257,19.9680967 L19.9921924,24.0328725 Z M21.709855,35.0307591 L21.709855,27.0175132 L29.158803,22.0357532 L35.171699,26.0574529 L21.709855,35.0307591 Z M36.5474444,22.8434316 L32.2495188,19.9680967 L36.5474444,17.0927619 L36.5474444,22.8434316 Z" id="Shape"></path>
        </g>
    </g>
</svg>