<svg xmlns="http://www.w3.org/2000/svg" xmlns:xlink="http://www.w3.org/1999/xlink" viewBox="141 150 100 100"><defs><style>.a{fill:#fff;}.b{clip-path:url(#a);}.c{fill:#404040;}</style><clipPath id="a"><circle class="a" cx="50" cy="50" r="50" transform="translate(141 150)"/></clipPath></defs><rect class="a" width="100" height="100" transform="translate(141 150)"/><g class="b"><g transform="translate(141 150)"><path class="c" d="M29.2,11.667a6.952,6.952,0,0,1,.354,4.578c2.056,1.755,2.762,6.022,1.77,9.508,2.93.224,6.42-.108,8.672.792a39.505,39.505,0,0,0-7.7-.617c-.515.035-1.277-.02-1.24.7a42.011,42.011,0,0,1,8.85,1.321,65.2,65.2,0,0,0-8.85-1.144c-1.314,2.593-3.959,3.868-7.61,4.136.392.854,1.144,1.179,1.328,2.553.274,2.052-.428,5.058.264,6.426.332.656.874.673,1.24,1.233-.894,1.058-3.111-.119-3.364-1.233-.432-1.909.659-4.868-.53-6.162.084,2.082-.492,5.006.088,6.866.229.732.89,1.014.708,1.674-4.156.422-2.419-5.38-3.1-8.8-.627.045-.352.939-.354,1.321-.018,3.344.684,7.931-2.92,7.484-.105-.7.484-.942.708-1.584.657-1.881-.123-4.685.178-6.956-1.376,1.037.144,4.658-.708,6.514a2.65,2.65,0,0,1-3.274,1.056c.156-.8.978-.667,1.326-1.408.487-1.033,0-2.522.177-4.049-2.546.508-4.521-.074-5.488-1.673A17.058,17.058,0,0,0,8.672,32c-.52-.636-1.351-.722-1.592-1.584,3.153-.759,3.274,3.245,6.106,3.344a6.887,6.887,0,0,0,2.124-.439,3.746,3.746,0,0,1,1.416-2.29c-3.524-.482-6.434-1.58-7.788-4.224a48.3,48.3,0,0,0-8.85,1.232A29.182,29.182,0,0,1,8.85,26.72c-.192-1.154-1.875-.836-2.92-.792A48.388,48.388,0,0,0,0,26.545c2.237-.8,5.377-.7,8.408-.7C7.481,22.934,7.8,18.316,9.824,16.6a6.317,6.317,0,0,1,.354-4.93,9.2,9.2,0,0,1,5.044,2.025,17.578,17.578,0,0,1,6.018-.616c1.013.056,2.067.512,2.831.44s1.574-.911,2.3-1.232A7.084,7.084,0,0,1,29.2,11.667Z" transform="translate(29 22)"/></g></g></svg>