<svg xmlns="http://www.w3.org/2000/svg" xmlns:xlink="http://www.w3.org/1999/xlink" viewBox="256 140 100 100"><defs><style>.a{fill:#fff;}.b{clip-path:url(#a);}.c{fill:#404040;}</style><clipPath id="a"><circle class="a" cx="50" cy="50" r="50"/></clipPath></defs><g transform="translate(256 140)"><g class="b"><g transform="translate(0 0)"><g transform="translate(30 22)"><path class="c" d="M40,13.23a16.387,16.387,0,0,1-4.712,1.292A8.24,8.24,0,0,0,38.9,9.986a16.543,16.543,0,0,1-5.214,1.992A8.212,8.212,0,0,0,19.7,19.459,23.3,23.3,0,0,1,2.787,10.885a8.215,8.215,0,0,0,2.54,10.953,8.206,8.206,0,0,1-3.717-1.03v.1a8.214,8.214,0,0,0,6.581,8.046,8.312,8.312,0,0,1-2.162.287,7.876,7.876,0,0,1-1.545-.152,8.21,8.21,0,0,0,7.664,5.7A16.463,16.463,0,0,1,1.957,38.3,17.44,17.44,0,0,1,0,38.185a23.2,23.2,0,0,0,12.578,3.692c15.095,0,23.346-12.5,23.346-23.346L35.9,17.469A16.386,16.386,0,0,0,40,13.23Z"/></g></g></g></g></svg>