<?xml version="1.0" encoding="UTF-8" standalone="no"?>
<svg width="40px" height="40px" viewBox="0 0 40 40" version="1.1" xmlns="http://www.w3.org/2000/svg" xmlns:xlink="http://www.w3.org/1999/xlink">
    <!-- Generator: Sketch 45.2 (43514) - http://www.bohemiancoding.com/sketch -->
    <title>google-plus</title>
    <desc>Created with Sketch.</desc>
    <defs></defs>
    <g id="Page-1" stroke="none" stroke-width="1" fill="none" fill-rule="evenodd">
        <g id="Artboard" transform="translate(-106.000000, -49.000000)" fill-rule="nonzero" fill="#DD4B39">
            <g id="google-plus" transform="translate(106.000000, 49.000000)">
                <path d="M0,0 L0,39.6593394 L39.6593394,39.6593394 L39.6593394,0 L0,0 Z M23.1196031,21.4980893 C22.4414269,25.9531838 19.1199039,28.5072442 14.8196247,28.5072442 C9.98710809,28.5072442 6.06921126,24.5893474 6.06921126,19.7568308 C6.06921126,14.9255326 9.98710809,11.0076358 14.8196247,11.0076358 C17.157257,11.0076358 19.2055353,11.8418455 20.6964264,13.289921 L18.1851817,15.8011657 C17.3346984,14.9443297 16.1708426,14.487629 14.8196247,14.487629 C11.9749919,14.487629 9.66877516,16.9133294 9.66877516,19.7567438 C9.66877516,22.6026819 11.9749919,24.95798 14.8196247,24.95798 C17.2038147,24.95798 19.0092967,23.8055244 19.5301339,21.4980893 L14.8196247,21.4980893 L14.8196247,17.9840697 L23.0982822,17.9840697 C23.1976634,18.5502463 23.2479631,19.1427911 23.2479631,19.7567438 C23.2478761,20.3657361 23.2038421,20.9457495 23.1196031,21.4980893 Z M33.6276354,20.4085518 L30.5615272,20.4085518 L30.5615272,23.4733546 L28.3836705,23.4733546 L28.3836705,20.4085518 L25.3175622,20.4085518 L25.3175622,18.2293897 L28.3836705,18.2293897 L28.3836705,15.1632815 L30.5615272,15.1632815 L30.5615272,18.2293897 L33.6276354,18.2293897 L33.6276354,20.4085518 L33.6276354,20.4085518 Z" id="Shape"></path>
            </g>
        </g>
    </g>
</svg>