<?xml version="1.0" encoding="UTF-8" standalone="no"?>
<svg width="40px" height="40px" viewBox="0 0 40 40" version="1.1" xmlns="http://www.w3.org/2000/svg" xmlns:xlink="http://www.w3.org/1999/xlink">
    <!-- Generator: Sketch 45.2 (43514) - http://www.bohemiancoding.com/sketch -->
    <title>twitter</title>
    <desc>Created with Sketch.</desc>
    <defs></defs>
    <g id="Page-1" stroke="none" stroke-width="1" fill="none" fill-rule="evenodd">
        <g id="Artboard" transform="translate(-212.000000, -119.000000)" fill-rule="nonzero">
            <g id="twitter" transform="translate(212.000000, 119.000000)">
                <rect id="Rectangle-path" fill="#50ABF1" x="0" y="0" width="39.9764035" height="39.9764035"></rect>
                <path d="M5.29622807,29.6335088 C7.95675439,31.3208772 11.1127193,32.2973684 14.4957895,32.2973684 C24.0000877,32.2973684 31.7045614,24.5920175 31.7045614,15.0885965 C31.7045614,14.8513158 31.6995614,14.6157895 31.6904386,14.3809649 C32.0342105,14.1104386 34.1603509,12.4063158 34.6814912,11.3107895 C34.6814912,11.3107895 32.9549123,12.0283333 31.2650877,12.1973684 C31.2617544,12.1973684 31.2576316,12.1981579 31.2542982,12.1981579 C31.2542982,12.1981579 31.2576316,12.1964912 31.2634211,12.1923684 C31.4191228,12.0883333 33.5959649,10.6064912 33.8907018,8.84087719 C33.8907018,8.84087719 32.6694737,9.4927193 30.9595614,10.0629825 C30.6764912,10.1570175 30.3801754,10.2494737 30.0746491,10.3351754 C28.9724561,9.15885965 27.4057895,8.42464912 25.6667544,8.42464912 C22.3310526,8.42464912 19.6280702,11.1268421 19.6280702,14.46 C19.6280702,14.9303509 19.682193,15.3881579 19.7845614,15.8277193 C19.3184211,15.8085965 12.2199123,15.410614 7.39078947,9.56254386 C7.39078947,9.56254386 4.50464912,13.5026316 9.11070175,17.5542105 C9.11070175,17.5542105 7.71052632,17.4984211 6.50254386,16.7766667 C6.50254386,16.7766667 6.05885965,21.55 11.2750877,22.7704386 C11.2750877,22.7704386 10.2486842,23.1592105 8.61122807,22.8820175 C8.61122807,22.8820175 9.52692982,26.7388596 14.1613158,27.0992982 C14.1613158,27.0992982 10.4966667,30.4098246 5.2945614,29.6330702 L5.29622807,29.6335088 Z" id="Shape" fill="#FFFFFF"></path>
            </g>
        </g>
    </g>
</svg>